HIERARCHY
ROOT ui
{
	 OFFSET 0 0 0
	 CHANNELS 3 XPosition YPosition Z Position
	 EndSite
	 {
	 OFFSET 0 -1 0
	 }
}
ROOT li
{
	 OFFSET 0 0 0
	 CHANNELS 3 XPosition YPosition Z Position
	 EndSite
	 {
	 OFFSET 0 -1 0
	 }
}
ROOT ul
{
	 OFFSET 0 0 0
	 CHANNELS 3 XPosition YPosition Z Position
	 EndSite
	 {
	 OFFSET 0 -1 0
	 }
}
ROOT ll
{
	 OFFSET 0 0 0
	 CHANNELS 3 XPosition YPosition Z Position
	 EndSite
	 {
	 OFFSET 0 -1 0
	 }
}
ROOT tt
{
	 OFFSET 0 0 0
	 CHANNELS 3 XPosition YPosition Z Position
	 EndSite
	 {
	 OFFSET 0 -1 0
	 }
}
ROOT tb
{
	 OFFSET 0 0 0
	 CHANNELS 3 XPosition YPosition Z Position
	 EndSite
	 {
	 OFFSET 0 -1 0
	 }
}
ROOT td
{
	 OFFSET 0 0 0
	 CHANNELS 3 XPosition YPosition Z Position
	 EndSite
	 {
	 OFFSET 0 -1 0
	 }
}
ROOT v
{
	 OFFSET 0 0 0
	 CHANNELS 3 XPosition YPosition Z Position
	 EndSite
	 {
	 OFFSET 0 -1 0
	 }
}
ROOT bn
{
	 OFFSET 0 0 0
	 CHANNELS 3 XPosition YPosition Z Position
	 EndSite
	 {
	 OFFSET 0 -1 0
	 }
}
MOTION
Frames: 19
Frame Time: 0.002
0.004644511222839355	3.9745000004768374E-4	0		0.4137648315429687	-2.28887841796875	0		-1.153203125	-0.02683955192565918	0		-0.7391053466796875	-2.31722216796875	0		1.2404376220703126	-0.6301835327148437	0		2.867572509765625	0.01315523910522461	0		4.52639697265625	0.080684326171875	0		5.5428583984375	0.20788400268554688	0		-0.24615487670898437	5.9491240234375	0		
0.010759576797485352	0.005597601890563965	0		0.4159301452636719	-2.286572021484375	0		-1.21722021484375	-0.027201120376586913	0		-0.8125584716796875	-2.296354736328125	0		1.248391357421875	-0.6339628295898437	0		2.871666259765625	0.017540050506591798	0		4.545654296875	0.09282929992675781	0		5.54585888671875	0.22433787536621094	0		-0.36466891479492186	5.9399619140625	0		
0.014885607719421387	0.007853030204772949	0		0.4181566467285156	-2.28525244140625	0		-1.1490855712890624	-0.02537347984313965	0		-0.7424959106445312	-2.303546142578125	0		1.242617431640625	-0.6284296875	0		2.874834228515625	0.021967741012573243	0		4.5364169921875	0.07860538482666016	0		5.545908203125	0.223695556640625	0		-0.23248149108886718	5.95846826171875	0		
0.01096619701385498	0.0042983717918396	0		0.4163847045898437	-2.287827392578125	0		-1.1489404296875	-0.026078058242797852	0		-0.8141448364257813	-2.299699951171875	0		1.2427958984375	-0.6290021362304687	0		2.9108203125	0.013722591400146485	0		4.54172509765625	0.08610692596435547	0		5.543056640625	0.21114622497558594	0		-0.24689726257324218	5.9471142578125	0		
0.011192726135253907	0.0036815359592437744	0		0.41674099731445313	-2.28842138671875	0		-1.148712158203125	-0.026760557174682616	0		-0.756779541015625	-2.300571044921875	0		1.2409952392578125	-0.6325061645507812	0		2.8561220703125	0.017434043884277342	0		4.53194921875	0.08595835876464844	0		5.54322265625	0.21061056518554688	0		-0.24700715637207032	5.946482421875	0		
0.008439055442810059	1.5660400688648224E-4	0		0.39122872924804686	-2.2864384765625	0		-1.22236376953125	-0.024852895736694337	0		-0.805560546875	-2.311166259765625	0		1.2413404541015625	-0.6330250244140625	0		2.877256591796875	0.008565502166748047	0		4.53708349609375	0.0775232925415039	0		5.54640625	0.22208799743652344	0		-0.365242919921875	5.93737353515625	0		
0.015952338218688966	0.0054499320983886716	0		0.429548583984375	-2.296773193359375	0		-1.1380556640625	-0.030249210357666017	0		-0.7639871826171875	-2.309634521484375	0		1.2496998291015624	-0.6366810302734375	0		2.884853759765625	0.01802031135559082	0		4.534720703125	0.08928224182128906	0		5.5537734375	0.2161016387939453	0		-0.23177766418457033	5.95498828125	0		
0.01641355323791504	0.004926339149475097	0		0.39848114013671876	-2.28060498046875	0		-1.137592529296875	-0.0308370418548584	0		-0.7840352783203125	-2.29276416015625	0		1.247386474609375	-0.6280748901367188	0		2.876358154296875	0.019845054626464843	0		4.543091796875	0.0848429946899414	0		5.5470205078125	0.22127169799804688	0		-0.2468544158935547	5.9447685546875	0		
0.012876287460327148	0.0015228470563888549	0		0.4189369812011719	-2.2904892578125	0		-1.147021728515625	-0.029178564071655273	0		-0.7417093505859375	-2.30917236328125	0		1.2428209228515625	-0.634389892578125	0		2.86190625	0.02082647705078125	0		4.5336142578125	0.08481036376953124	0		5.54444287109375	0.20897494506835937	0		-0.24761009216308594	5.94628662109375	0		
-0.03551625442504883	0.003095060110092163	0		0.4196328125	-2.290919921875	0		-1.1464443359375	-0.029691068649291993	0		-0.75388427734375	-2.303393310546875	0		1.24343017578125	-0.63477734375	0		2.894202392578125	0.006857800006866455	0		4.54105859375	0.07845023345947266	0		5.544857421875	0.20868482971191407	0		-0.24638746643066406	5.94380078125	0		
0.014065953254699707	6.557090282440185E-4	0		0.42036053466796874	-2.29131494140625	0		-1.1458289794921874	-0.030164058685302735	0		-0.7880858154296875	-2.300117431640625	0		1.2440755615234376	-0.6351315307617188	0		2.87496630859375	0.014001128196716308	0		4.54375146484375	0.08221728515625	0		5.548255859375	0.22039584350585936	0		-0.3784781494140625	5.92512939453125	0		
-0.03426193237304687	0.0022955620288848877	0		0.3971961364746094	-2.287177001953125	0		-1.1411044921875	-0.026681474685668945	0		-0.7646552734375	-2.316009521484375	0		1.2468077392578125	-0.63249609375	0		2.8756064453125	0.013754609107971192	0		4.55438623046875	0.08184024047851562	0		5.54871630859375	0.22017593383789064	0		-0.231478515625	5.95368701171875	0		
0.019427135467529298	0.0028480699062347413	0		0.42390625	-2.290044677734375	0		-1.1404442138671875	-0.02707559585571289	0		-0.7716666259765625	-2.305223876953125	0		1.2474940185546874	-0.6327877197265624	0		2.879367919921875	0.018469558715820313	0		4.53608740234375	0.08408470153808593	0		5.5491904296875	0.2199833068847656	0		-0.2453004150390625	5.942625	0		
0.01603600311279297	-3.792630136013031E-4	0		0.424666259765625	-2.290339599609375	0		-1.1438548583984376	-0.03134814643859863	0		-0.7508896484375	-2.304980224609375	0		1.2461273193359375	-0.6360083618164063	0		2.900887939453125	0.010837003707885743	0		4.53675439453125	0.08395074462890625	0		5.54671533203125	0.20784925842285157	0		-0.24582122802734374	5.94432421875	0		
0.013647893905639648	-0.0035959250926971436	0		0.4472701416015625	-2.298058349609375	0		-1.1431805419921874	-0.031668087005615235	0		-0.7742546997070312	-2.310788818359375	0		1.2468228759765625	-0.6362447509765625	0		2.861631591796875	0.01448546314239502	0		4.5474228515625	0.08362260437011719	0		5.5471982421875	0.20769432067871094	0		-0.24633494567871095	5.94505615234375	0		
-0.03159400177001953	0.0011039470434188842	0		0.3981603088378906	-2.290263427734375	0		-1.1425140380859375	-0.031952590942382814	0		-0.7385682373046875	-2.31378466796875	0		1.247507568359375	-0.6364570922851562	0		2.86815087890625	0.007199368953704834	0		4.5370673828125	0.08273731231689453	0		5.54763134765625	0.20235714721679687	0		-0.37631689453125	5.92348974609375	0		
0.01802102279663086	-0.0011292740106582642	0		0.4268576354980469	-2.291052734375	0		-1.205853515625	-0.030882108688354493	0		-0.7917909545898437	-2.3099111328125	0		1.259167236328125	-0.63687451171875	0		2.92507373046875	0.019890901565551757	0		4.54768896484375	0.08142286682128906	0		5.55404931640625	0.23132708740234376	0		-0.36063613891601565	5.931947265625	0		
-0.027270530700683592	0.003623970031738281	0		0.4295602722167969	-2.289280517578125	0		-1.137168701171875	-0.028503246307373047	0		-0.7310796508789063	-2.30835888671875	0		1.25085986328125	-0.6338590698242188	0		2.86766064453125	0.018950672149658204	0		4.54346923828125	0.08942026519775391	0		5.55153515625	0.21921363830566407	0		-0.2296709442138672	5.953060546875	0		
0.01921450614929199	-0.0014920719861984252	0		0.4260915832519531	-2.293359375	0		-1.1406724853515624	-0.03260662841796875	0		-0.8173038330078125	-2.29974853515625	0		1.251447021484375	-0.634008544921875	0		2.880111328125	0.012580451011657714	0		4.54679736328125	0.07726277923583984	0		5.54899267578125	0.2071031951904297	0		-0.24243074035644532	5.941158203125	0		
